<svg xmlns="http://www.w3.org/2000/svg" xml:space="preserve" style="width:48px;height:48px;opacity:1" viewBox="0 0 512 512"><path d="M380.63 32.196C302.639 33.698 264.47 88.893 256 139.075c-8.47-50.182-46.638-105.378-124.63-106.879C59.462 30.814 0 86.128 0 187.076c0 129.588 146.582 189.45 246.817 286.25 3.489 3.371 2.668 3.284 2.668 3.284 1.647 2.031 4.014 3.208 6.504 3.208v.011h.022v-.011c2.489 0 4.856-1.177 6.503-3.208 0 0-.821.086 2.669-3.284C365.418 376.526 512 316.664 512 187.076c0-100.948-59.462-156.262-131.37-154.88z" style="fill:#4b4b4b"/></svg>