<svg xmlns="http://www.w3.org/2000/svg" xml:space="preserve" style="width:48px;height:48px;opacity:1" viewBox="0 0 512 512"><path d="M407.543 204.886v-53.345c.016-41.722-17.033-79.835-44.392-107.153C335.849 17.028 297.736-.016 256.002 0c-41.738-.016-79.85 17.028-107.153 44.388a151.292 151.292 0 0 0-44.404 107.153v53.345H55.558v210.128c0 53.572 43.437 96.986 97.002 96.986h206.898c53.565 0 96.985-43.413 96.985-96.986V204.886h-48.9zm-229.526-53.345c0-10.867 2.178-21.035 6.108-30.342 5.889-13.956 15.822-25.937 28.274-34.349 12.513-8.429 27.306-13.274 43.603-13.29 10.864 0 21.032 2.17 30.338 6.104 13.956 5.893 25.934 15.842 34.346 28.294 8.412 12.485 13.277 27.286 13.298 43.583v53.345H178.017v-53.345zm77.985 240.837c-27.672 0-50.114-22.442-50.114-50.11 0-27.676 22.442-50.11 50.114-50.11 27.668 0 50.11 22.434 50.11 50.11 0 27.668-22.442 50.11-50.11 50.11z" style="fill:#4b4b4b"/></svg>